<svg xmlns="http://www.w3.org/2000/svg" width="1308.3" height="672.7" viewBox="0 0 1308.3 672.7"><g id="Layer_2" data-name="Layer 2"><g id="right-pattern"><path d="M1029.9,633.2l14.4-42.1,89.4,15.7,33.6,52.6L1102,672.7Zm-137.1-2.1,49.7-14.6L901.4,566l-76.8-13.5-1.1,41.4ZM710,594.8l37.5-15.4-46.3-48.6-66.8-11.7,9,40.5Zm-161.1-32,27.8-15.9-49.9-46.7-58.5-10.3L485,529.4Zm-143-28.5,20-16.1-52.3-44.9-51.7-9.1,22.6,38.5Zm799.8,46.8,85.1-22.1-33.4-69.2-111.6-14.9-24.3,58.2ZM952.9,539.7l62.3-22.8-45-65.3-93-12.4-4.8,55.9ZM737,504.4l45.3-23.1-52.7-61.8-78.8-10.4,9.4,53.6ZM550.5,473.8l32.2-23L525,392.3l-67.5-9,19.7,51.4ZM387.9,447.2l22-22.8L349,368.9l-58.6-7.8,27.4,49.3Zm664.8-40.6,84.6-38.3-48.2-91.5-120-8.5-13.1,82ZM785.3,375.9l58.2-36.8L782.6,255l-97.8-7,8.9,76.2ZM560.9,350.1l39-35.2L531.4,237l-81.1-5.8,23.9,71.2ZM370,328.2l24.9-33.7-73.1-72.4-68.4-4.9,34.3,66.6ZM205.6,309.4l14.2-32.3-75.5-67.7-58.5-4.2,41.6,62.7Zm980.9-101.3,121.8-68.6L1259.9,0,1096,2.8l-29.5,130.7ZM842.6,191.8l77.8-62L848.9,7.1l-126,2.2L730.4,125ZM565.8,178.6,614,122.1,529.9,12.6l-99.8,1.8,30.6,103.8ZM338.1,167.7l27.7-51.9L275.2,17l-81,1.4,45.3,94.3Zm-190.6-9,13.1-48L67.1,20.6,0,21.8,54.8,108Z"/></g></g></svg>