<svg xmlns="http://www.w3.org/2000/svg" width="891.2" height="869.8" viewBox="0 0 891.2 869.8"><g id="Layer_2" data-name="Layer 2"><g id="logo"><path d="M50,272.2V53.2H77.6V248.6h36.6v23.6Z"/><path d="M152.8,215.7l-5.4,56.5H119.7l26.2-219h39.8l26.8,219H183.7l-5.5-56.5ZM165.5,81.8,154.9,192.1h21.3Z"/><path d="M257.2,76.3V272.2H229.5V76.3H203.3V53.2h80.1V76.3Z"/><path d="M295.5,53.2h68.3V76.9H323.1v72.6h35.5v23.6H323.1v75.5h41.2v23.6H295.5Z"/><path d="M424.6,82.1l-5.8-5.8H408.7l-5.8,5.8v61.6l5.8,5.8h27.1l17.3,17.3v88.1l-17.3,17.3H392l-17.3-17.3V209.1h27.7v34.3l5.7,5.8h11.6l5.7-5.8V178.9l-5.7-5.8H392.6l-17.3-17.3V70.5l17.3-17.3h42.3l17.3,17.3v46.1H424.6Z"/><path d="M515.3,76.3V272.2H487.7V76.3H461.4V53.2h80.1V76.3Z"/><path d="M262.8,353.1l-5.8-5.8H246.9l-5.7,5.8v61.6l5.7,5.8H274l17.3,17.3v88.1L274,543.2H230.2l-17.3-17.3V480.1h27.7v34.3l5.7,5.8h11.6l5.7-5.8V449.9l-5.7-5.8H230.8l-17.3-17.3V341.5l17.3-17.3h42.3l17.3,17.3v46.1H262.8Z"/><path d="M389.5,525.9l-17.3,17.3H324.1l-17.3-17.3V341.5l17.3-17.3h48.1l17.3,17.3Zm-49.2-178-5.8,5.7V513.8l5.8,5.8h15.8l5.8-5.8V353.6l-5.8-5.7Z"/><path d="M406.8,341.5l17.3-17.3h42.7L484,341.5v49.3H456.4V353.1l-5.8-5.8H440.2l-5.7,5.8V513.8l5.7,5.8h10.4l5.8-5.8V476.4H484v49.5l-17.2,17.3H424.1l-17.3-17.3Z"/><path d="M499,341.5l17.3-17.3H559l17.2,17.3v49.3H548.6V353.1l-5.8-5.8H532.4l-5.7,5.8V513.8l5.7,5.8h10.4l5.8-5.8V476.4h27.6v49.5L559,543.2H516.3L499,525.9Z"/><path d="M592.1,324.2h68.3v23.7H619.7v72.6h35.5v23.6H619.7v75.5H661v23.6H592.1Z"/><path d="M675.6,324.2h64l17.3,17.3v91.1l-15.3,15.3,17.3,95.3H732.1l-17-93.3H703.3v93.3H675.6Zm53.6,97.4V353.1l-5.7-5.8H703.3v80.1h20.2Z"/><path d="M483.5,624.1l-5.8-5.8H467.6l-5.8,5.8v61.6l5.8,5.8h27.1L512,708.8v88.1l-17.3,17.3H450.9l-17.3-17.3V751.1h27.7v34.3l5.7,5.8h11.6l5.7-5.8V720.9l-5.7-5.8H451.5l-17.3-17.3V612.5l17.3-17.3h42.3l17.3,17.3v46.1H483.5Z"/><path d="M574.2,618.3V814.2H546.6V618.3H520.3V595.2h80.1v23.1Z"/><path d="M624.4,757.7l-5.5,56.5H591.2l26.2-219h39.8l26.8,219H655.2l-5.5-56.5ZM637,623.8,626.4,734.1h21.3Z"/><path d="M728.7,618.3V814.2H701V618.3H674.8V595.2h80.1v23.1Z"/><path d="M813.1,624.1l-5.8-5.8H797.2l-5.7,5.8v61.6l5.7,5.8h27.1l17.3,17.3v88.1l-17.3,17.3H780.5l-17.3-17.3V751.1h27.7v34.3l5.8,5.8h11.5l5.7-5.8V720.9l-5.7-5.8H781.1l-17.3-17.3V612.5l17.3-17.3h42.4l17.2,17.3v46.1H813.1Z"/><polyline points="566.8 165.5 566.8 264.2 715.5 264.2" fill="none" stroke="#000" stroke-miterlimit="10" stroke-width="21"/><polyline points="390.8 744.7 390.8 597.2 260 597.2" fill="none" stroke="#000" stroke-miterlimit="10" stroke-width="21"/><polyline points="880.7 684.3 880.7 859.3 734 859.3" fill="none" stroke="#000" stroke-miterlimit="10" stroke-width="21"/><polyline points="163.8 10.5 10.5 10.5 10.5 165.6" fill="none" stroke="#000" stroke-miterlimit="10" stroke-width="21"/></g></g></svg>